<?xml version="1.0" encoding="UTF-8"?>
<svg version="1.1" xmlns="http://www.w3.org/2000/svg" width="100" height="100">
<path d="M0 0 C1.75 1.375 1.75 1.375 2.15161133 3.69799805 C3.90303412 11.53331054 13.55515047 18.75726719 19.75 23.375 C23.26009426 25.37375315 25.98801856 25.64891612 30.0390625 25.1484375 C38.50635489 21.93508831 46.68292454 12.66187603 51.75 5.375 C52.50591237 2.7113536 52.50591237 2.7113536 52.75 0.375 C55.39 0.375 58.03 0.375 60.75 0.375 C61.245 3.84 61.245 3.84 61.75 7.375 C57.75 9.375 57.75 9.375 55.85253906 10.24511719 C47.92941979 14.50291979 39.90210119 22.84057284 36.0703125 30.9140625 C35.34363077 36.35780105 36.28720574 39.42338765 39.50634766 43.71826172 C48.44537749 54.74634935 48.44537749 54.74634935 60.75 60.375 C60.75 63.015 60.75 65.655 60.75 68.375 C57.285 68.87 57.285 68.87 53.75 69.375 C51.75 65.375 51.75 65.375 50.87988281 63.47753906 C46.62208021 55.55441979 38.28442716 47.52710119 30.2109375 43.6953125 C24.76719895 42.96863077 21.70161235 43.91220574 17.40673828 47.13134766 C6.37865065 56.07037749 6.37865065 56.07037749 0.75 68.375 C-2.53976808 69.47158936 -3.96303767 69.17453138 -7.25 68.375 C-7.25 65.735 -7.25 63.095 -7.25 60.375 C-6.44304688 60.20484375 -5.63609375 60.0346875 -4.8046875 59.859375 C3.75926018 56.28322103 12.24725057 47.53721473 16.81884766 39.49462891 C18.1707412 36.01086531 18.17998912 32.81597498 16.85449219 29.32324219 C12.53025921 21.69561638 4.91655094 14.35840499 -2.25 9.375 C-4.9136464 8.61908763 -4.9136464 8.61908763 -7.25 8.375 C-7.25 5.735 -7.25 3.095 -7.25 0.375 C-4.52958849 -0.38066986 -2.7481783 -0.76338286 0 0 Z " fill="#93A7CA" transform="translate(23.25,15.625)"/>
<path d="M0 0 C1.32 0 2.64 0 4 0 C4 8.58 4 17.16 4 26 C4.66 26 5.32 26 6 26 C6 28.64 6 31.28 6 34 C3.36 34 0.72 34 -2 34 C-2 33.34 -2 32.68 -2 32 C-2.66 32 -3.32 32 -4 32 C-4 30.68 -4 29.36 -4 28 C-3.34 28 -2.68 28 -2 28 C-2 27.34 -2 26.68 -2 26 C-1.34 26 -0.68 26 0 26 C0 17.42 0 8.84 0 0 Z " fill="#9BB3D2" transform="translate(48,62)"/>
<path d="M0 0 C2.64 0 5.28 0 8 0 C8 0.66 8 1.32 8 2 C8.66 2 9.32 2 10 2 C10 3.32 10 4.64 10 6 C9.34 6 8.68 6 8 6 C8 6.66 8 7.32 8 8 C7.34 8 6.68 8 6 8 C6 16.58 6 25.16 6 34 C4.68 34 3.36 34 2 34 C2 25.42 2 16.84 2 8 C1.34 8 0.68 8 0 8 C0 5.36 0 2.72 0 0 Z " fill="#9BB3D2" transform="translate(46,4)"/>
<path d="M0 0 C1.32 0 2.64 0 4 0 C4 0.66 4 1.32 4 2 C4.66 2 5.32 2 6 2 C6 2.66 6 3.32 6 4 C14.58 4 23.16 4 32 4 C32 5.32 32 6.64 32 8 C23.42 8 14.84 8 6 8 C6 8.66 6 9.32 6 10 C3.36 10 0.72 10 -2 10 C-2 7.36 -2 4.72 -2 2 C-1.34 2 -0.68 2 0 2 C0 1.34 0 0.68 0 0 Z " fill="#9BB3D2" transform="translate(6,44)"/>
<path d="M0 0 C2.64 0 5.28 0 8 0 C8 2.64 8 5.28 8 8 C2.25 9.125 2.25 9.125 0 8 C0 7.34 0 6.68 0 6 C-8.58 6 -17.16 6 -26 6 C-26 4.68 -26 3.36 -26 2 C-17.42 2 -8.84 2 0 2 C0 1.34 0 0.68 0 0 Z " fill="#9BB3D3" transform="translate(88,46)"/>
<path d="M0 0 C2.64 0 5.28 0 8 0 C8 2.64 8 5.28 8 8 C5.36 8 2.72 8 0 8 C0 5.36 0 2.72 0 0 Z " fill="#121218" transform="translate(46,46)"/>
</svg>
